<svg xmlns="http://www.w3.org/2000/svg" viewBox="0 0 32 32">
<defs><clipPath id="r"><rect x="1" y="1" width="30" height="30" rx="8"/></clipPath></defs>
<rect width="32" height="32" fill="#000"/>
<g clip-path="url(#r)"><path d="M16 16 L3.00 38.52 A26 26 0 0 1 0.64 36.97 Z" fill="rgb(231,95,75)"/><path d="M16 16 L0.86 37.13 A26 26 0 0 1 -1.35 35.37 Z" fill="rgb(230,99,76)"/><path d="M16 16 L-1.14 35.55 A26 26 0 0 1 -3.16 33.57 Z" fill="rgb(229,103,77)"/><path d="M16 16 L-2.98 33.77 A26 26 0 0 1 -4.79 31.61 Z" fill="rgb(228,108,78)"/><path d="M16 16 L-4.63 31.83 A26 26 0 0 1 -6.22 29.50 Z" fill="rgb(227,112,79)"/><path d="M16 16 L-6.08 29.73 A26 26 0 0 1 -7.44 27.25 Z" fill="rgb(226,116,80)"/><path d="M16 16 L-7.32 27.50 A26 26 0 0 1 -8.43 24.90 Z" fill="rgb(225,120,81)"/><path d="M16 16 L-8.33 25.16 A26 26 0 0 1 -9.18 22.47 Z" fill="rgb(224,124,82)"/><path d="M16 16 L-9.11 22.73 A26 26 0 0 1 -9.70 19.97 Z" fill="rgb(222,129,84)"/><path d="M16 16 L-9.65 20.24 A26 26 0 0 1 -9.96 17.43 Z" fill="rgb(221,133,85)"/><path d="M16 16 L-9.94 17.70 A26 26 0 0 1 -9.98 14.88 Z" fill="rgb(220,137,86)"/><path d="M16 16 L-9.99 15.15 A26 26 0 0 1 -9.74 12.34 Z" fill="rgb(219,141,87)"/><path d="M16 16 L-9.78 12.61 A26 26 0 0 1 -9.26 9.83 Z" fill="rgb(218,145,88)"/><path d="M16 16 L-9.32 10.10 A26 26 0 0 1 -8.53 7.39 Z" fill="rgb(217,150,89)"/><path d="M16 16 L-8.62 7.64 A26 26 0 0 1 -7.57 5.02 Z" fill="rgb(216,154,90)"/><path d="M16 16 L-7.68 5.27 A26 26 0 0 1 -6.38 2.76 Z" fill="rgb(215,158,91)"/><path d="M16 16 L-6.52 3.00 A26 26 0 0 1 -4.97 0.64 Z" fill="rgb(211,160,94)"/><path d="M16 16 L-5.13 0.86 A26 26 0 0 1 -3.37 -1.35 Z" fill="rgb(204,162,99)"/><path d="M16 16 L-3.55 -1.14 A26 26 0 0 1 -1.57 -3.16 Z" fill="rgb(198,162,104)"/><path d="M16 16 L-1.77 -2.98 A26 26 0 0 1 0.39 -4.79 Z" fill="rgb(191,164,109)"/><path d="M16 16 L0.17 -4.63 A26 26 0 0 1 2.50 -6.22 Z" fill="rgb(185,164,113)"/><path d="M16 16 L2.27 -6.08 A26 26 0 0 1 4.75 -7.44 Z" fill="rgb(178,166,118)"/><path d="M16 16 L4.50 -7.32 A26 26 0 0 1 7.10 -8.43 Z" fill="rgb(172,166,123)"/><path d="M16 16 L6.84 -8.33 A26 26 0 0 1 9.53 -9.18 Z" fill="rgb(165,168,128)"/><path d="M16 16 L9.27 -9.11 A26 26 0 0 1 12.03 -9.70 Z" fill="rgb(159,168,132)"/><path d="M16 16 L11.76 -9.65 A26 26 0 0 1 14.57 -9.96 Z" fill="rgb(152,170,137)"/><path d="M16 16 L14.30 -9.94 A26 26 0 0 1 17.12 -9.98 Z" fill="rgb(146,170,142)"/><path d="M16 16 L16.85 -9.99 A26 26 0 0 1 19.66 -9.74 Z" fill="rgb(139,172,147)"/><path d="M16 16 L19.39 -9.78 A26 26 0 0 1 22.17 -9.26 Z" fill="rgb(133,172,151)"/><path d="M16 16 L21.90 -9.32 A26 26 0 0 1 24.61 -8.53 Z" fill="rgb(126,174,156)"/><path d="M16 16 L24.36 -8.62 A26 26 0 0 1 26.98 -7.57 Z" fill="rgb(120,174,161)"/><path d="M16 16 L26.73 -7.68 A26 26 0 0 1 29.24 -6.38 Z" fill="rgb(113,176,166)"/><path d="M16 16 L29.00 -6.52 A26 26 0 0 1 31.36 -4.97 Z" fill="rgb(109,175,170)"/><path d="M16 16 L31.14 -5.13 A26 26 0 0 1 33.35 -3.37 Z" fill="rgb(108,174,173)"/><path d="M16 16 L33.14 -3.55 A26 26 0 0 1 35.16 -1.57 Z" fill="rgb(107,172,177)"/><path d="M16 16 L34.98 -1.77 A26 26 0 0 1 36.79 0.39 Z" fill="rgb(106,170,180)"/><path d="M16 16 L36.63 0.17 A26 26 0 0 1 38.22 2.50 Z" fill="rgb(105,169,184)"/><path d="M16 16 L38.08 2.27 A26 26 0 0 1 39.44 4.75 Z" fill="rgb(104,167,187)"/><path d="M16 16 L39.32 4.50 A26 26 0 0 1 40.43 7.10 Z" fill="rgb(103,165,191)"/><path d="M16 16 L40.33 6.84 A26 26 0 0 1 41.18 9.53 Z" fill="rgb(102,164,194)"/><path d="M16 16 L41.11 9.27 A26 26 0 0 1 41.70 12.03 Z" fill="rgb(101,162,198)"/><path d="M16 16 L41.65 11.76 A26 26 0 0 1 41.96 14.57 Z" fill="rgb(100,161,201)"/><path d="M16 16 L41.94 14.30 A26 26 0 0 1 41.98 17.12 Z" fill="rgb(99,159,205)"/><path d="M16 16 L41.99 16.85 A26 26 0 0 1 41.74 19.66 Z" fill="rgb(98,157,208)"/><path d="M16 16 L41.78 19.39 A26 26 0 0 1 41.26 22.17 Z" fill="rgb(97,156,212)"/><path d="M16 16 L41.32 21.90 A26 26 0 0 1 40.53 24.61 Z" fill="rgb(96,154,215)"/><path d="M16 16 L40.62 24.36 A26 26 0 0 1 39.57 26.98 Z" fill="rgb(95,152,219)"/><path d="M16 16 L39.68 26.73 A26 26 0 0 1 38.38 29.24 Z" fill="rgb(94,151,222)"/><path d="M16 16 L38.52 29.00 A26 26 0 0 1 36.97 31.36 Z" fill="rgb(97,148,219)"/><path d="M16 16 L37.13 31.14 A26 26 0 0 1 35.37 33.35 Z" fill="rgb(106,145,210)"/><path d="M16 16 L35.55 33.14 A26 26 0 0 1 33.57 35.16 Z" fill="rgb(115,141,201)"/><path d="M16 16 L33.77 34.98 A26 26 0 0 1 31.61 36.79 Z" fill="rgb(123,138,191)"/><path d="M16 16 L31.83 36.63 A26 26 0 0 1 29.50 38.22 Z" fill="rgb(132,134,182)"/><path d="M16 16 L29.73 38.08 A26 26 0 0 1 27.25 39.44 Z" fill="rgb(141,130,172)"/><path d="M16 16 L27.50 39.32 A26 26 0 0 1 24.90 40.43 Z" fill="rgb(149,127,163)"/><path d="M16 16 L25.16 40.33 A26 26 0 0 1 22.47 41.18 Z" fill="rgb(158,123,154)"/><path d="M16 16 L22.73 41.11 A26 26 0 0 1 19.97 41.70 Z" fill="rgb(167,120,144)"/><path d="M16 16 L20.24 41.65 A26 26 0 0 1 17.43 41.96 Z" fill="rgb(176,116,135)"/><path d="M16 16 L17.70 41.94 A26 26 0 0 1 14.88 41.98 Z" fill="rgb(184,113,126)"/><path d="M16 16 L15.15 41.99 A26 26 0 0 1 12.34 41.74 Z" fill="rgb(193,109,116)"/><path d="M16 16 L12.61 41.78 A26 26 0 0 1 9.83 41.26 Z" fill="rgb(202,105,107)"/><path d="M16 16 L10.10 41.32 A26 26 0 0 1 7.39 40.53 Z" fill="rgb(210,102,97)"/><path d="M16 16 L7.64 40.62 A26 26 0 0 1 5.02 39.57 Z" fill="rgb(219,98,88)"/><path d="M16 16 L5.27 39.68 A26 26 0 0 1 2.76 38.38 Z" fill="rgb(228,95,79)"/></g>
</svg>